#!OML:ASF F:\VICON\USERDATA\INSTALL\rory3\rory3.ASF
:FULLY-SPECIFIED
:DEGREES
821
root 0.228353 17.9876 -1.24365 2.55293 -11.2382 2.5803
lowerback 0.060256 -0.858489 -4.28196
upperback 0.742337 -1.14115 1.6661
thorax 0.847717 -0.607631 4.11074
lowerneck -17.8129 0.524544 -9.24812
upperneck 21.6481 2.57925 3.24431
head 9.6472 0.800063 3.01247
rclavicle -4.22417e-015 -2.38542e-015
rhumerus -25.5089 22.6558 -87.6419
rradius 112.952
rwrist 12.6466
rhand -22.7043 10.9457
rfingers 7.12502
rthumb 3.72865 -19.0014
lclavicle -4.22417e-015 -2.38542e-015
lhumerus -30.3077 -25.6608 97.2362
lradius 95.6885
lwrist 8.46295
lhand -23.8878 29.4413
lfingers 7.12502
lthumb 2.58572 59.4054
rfemur -10.9582 7.74784 12.2733
rtibia 25.7521
rfoot -14.3515 -1.58362
rtoes 4.41594
lfemur -2.43906 -1.38103 -23.7889
ltibia 13.7072
lfoot -9.96837 5.79224
ltoes -11.1336
822
root 0.232957 17.9865 -1.24083 2.40497 -11.2301 2.15126
lowerback 0.183401 -0.808391 -3.89249
upperback 0.78551 -1.08104 1.82725
thorax 0.812255 -0.575625 4.05962
lowerneck -17.8367 0.447338 -9.23731
upperneck 21.5999 2.48965 3.16763
head 9.64305 0.751956 2.97158
rclavicle -2.0773e-014 7.95139e-016
rhumerus -24.7916 23.4127 -87.3337
rradius 114.145
rwrist 12.7453
rhand -22.6121 11.0426
rfingers 7.12502
rthumb 3.81772 -18.903
lclavicle -2.0773e-014 7.95139e-016
lhumerus -30.714 -25.5051 97.7062
lradius 94.6926
lwrist 8.12408
lhand -24.0714 29.2135
lfingers 7.12502
lthumb 2.40838 59.1797
rfemur -10.6979 7.86595 12.7833
rtibia 25.7591
rfoot -14.4237 -1.68318
rtoes 4.14593
lfemur -2.16792 -1.46405 -23.3362
ltibia 13.6975
lfoot -10.0166 5.89154
ltoes -10.869
823
root 0.229628 17.9872 -1.237 2.1951 -11.2059 1.55773
lowerback 0.394821 -0.745569 -3.40787
upperback 0.837525 -1.0058 2.02481
thorax 0.734286 -0.534853 3.9934
lowerneck -17.8598 0.385703 -9.2003
upperneck 21.5873 2.39789 3.15894
head 9.64989 0.711914 2.95086
rclavicle 2.84759e-014 4.77083e-015
rhumerus -24.1312 24.1195 -87.0263
rradius 115.182
rwrist 13.0875
rhand -22.5635 11.4291
rfingers 7.12502
rthumb 3.86465 -18.5156
lclavicle 2.84759e-014 4.77083e-015
lhumerus -31.2222 -25.4192 98.1671
lradius 93.775
lwrist 8.0195
lhand -24.271 28.6329
lfingers 7.12502
lthumb 2.21567 58.6011
rfemur -10.3012 8.17153 13.521
rtibia 25.7372
rfoot -14.5469 -1.90998
rtoes 4.39781
lfemur -1.831 -1.49716 -22.6783
ltibia 13.7497
lfoot -10.1278 5.89747
ltoes -10.8744
824
root 0.221087 17.9847 -1.23118 2.04047 -11.1976 1.75228
lowerback 0.412497 -0.724761 -3.61724
upperback 0.797069 -0.977848 1.91139
thorax 0.681838 -0.519806 3.99506
lowerneck -17.8658 0.348012 -9.08362
upperneck 21.5704 2.30262 3.1985
head 9.65148 0.682589 2.93316
rclavicle -3.47873e-015 -4.77083e-015
rhumerus -23.4958 24.9212 -86.9314
rradius 116.061
rwrist 13.7049
rhand -22.2474 11.4338
rfingers 7.12502
rthumb 4.16985 -18.5051
lclavicle -3.47873e-015 -4.77083e-015
lhumerus -31.6485 -25.3511 98.3439
lradius 92.9016
lwrist 7.89876
lhand -24.2797 28.0982
lfingers 7.12502
lthumb 2.20725 58.0665
rfemur -10.0869 8.2484 13.3465
rtibia 25.6564
rfoot -14.5863 -1.95907
rtoes 4.58895
lfemur -1.77846 -1.40672 -22.8698
ltibia 13.9557
lfoot -10.2905 5.76545
ltoes -11.006
825
root 0.217295 17.9793 -1.22911 1.83231 -11.1563 1.97983
lowerback 0.470173 -0.704716 -3.74724
upperback 0.825861 -0.95174 1.73084
thorax 0.675611 -0.507118 3.88225
lowerneck -17.9377 0.249025 -8.955
upperneck 21.5037 2.1356 3.19466
head 9.65375 0.617438 2.88877
rclavicle -6.5102e-015 1.43125e-014
rhumerus -22.7425 25.624 -86.8488
rradius 116.878
rwrist 14.203
rhand -21.5189 11.2916
rfingers 7.12502
rthumb 4.87333 -18.6323
lclavicle -6.5102e-015 1.43125e-014
lhumerus -31.814 -25.3354 98.3222
lradius 91.9252
lwrist 7.82542
lhand -24.2685 27.3796
lfingers 7.12502
lthumb 2.21806 57.3478
rfemur -9.88003 8.24937 13.1346
rtibia 25.6279
rfoot -14.5992 -1.97585
rtoes 4.78385
lfemur -1.64925 -1.25785 -23.1018
ltibia 14.0774
lfoot -10.3114 5.62059
ltoes -11.2331
826
root 0.216244 17.9784 -1.23193 1.81141 -11.0526 1.88245
lowerback 0.306041 -0.715968 -3.47139
upperback 0.940086 -0.95997 1.58769
thorax 0.878302 -0.514899 3.57512
lowerneck -18.2279 0.152479 -8.86703
upperneck 21.4901 1.97227 3.33076
head 9.71163 0.566067 2.90492
rclavicle -3.27995e-015 1.07344e-014
rhumerus -21.8922 26.1619 -86.8052
rradius 117.656
rwrist 14.4995
rhand -20.6309 11.5541
rfingers 7.12502
rthumb 5.73073 -18.3484
lclavicle -3.27995e-015 1.07344e-014
lhumerus -31.7383 -25.3756 98.1205
lradius 90.9698
lwrist 7.74375
lhand -24.2473 26.4678
lfingers 7.12502
lthumb 2.23856 56.4358
rfemur -9.86083 8.30719 13.2687
rtibia 25.6791
rfoot -14.6678 -2.11634
rtoes 4.57755
lfemur -1.62348 -1.19275 -22.9705
ltibia 14.0569
lfoot -10.2436 5.50161
ltoes -11.197
827
root 0.215309 17.9801 -1.23444 1.86627 -10.9295 1.76162
lowerback 0.0601242 -0.730885 -3.15039
upperback 1.03523 -0.971864 1.43704
thorax 1.10643 -0.523208 3.23425
lowerneck -18.5144 0.0847906 -8.85145
upperneck 21.5251 1.81881 3.67202
head 9.78113 0.536624 3.00777
rclavicle 2.1916e-014 -8.74653e-015
rhumerus -21.0126 26.6695 -86.7324
rradius 118.323
rwrist 14.9661
rhand -20.0275 11.9375
rfingers 7.12502
rthumb 6.31329 -17.9484
lclavicle 2.1916e-014 -8.74653e-015
lhumerus -31.7251 -25.5003 97.9536
lradius 90.2354
lwrist 7.47256
lhand -24.065 26.2589
lfingers 7.12502
lthumb 2.41461 56.225
rfemur -9.88553 8.35698 13.4108
rtibia 25.6893
rfoot -14.751 -2.22147
rtoes 4.42518
lfemur -1.70922 -1.23509 -22.8208
ltibia 14.0859
lfoot -10.2522 5.39749
ltoes -11.0964
828
root 0.215156 17.9807 -1.23254 1.89493 -10.8166 1.77351
lowerback -0.0679831 -0.716842 -3.09214
upperback 0.996916 -0.949426 1.37866
thorax 1.13507 -0.510997 3.14003
lowerneck -18.4763 0.0159057 -8.87428
upperneck 21.4448 1.69078 3.81291
head 9.752 0.494384 3.04222
rclavicle 1.61513e-014 4.77083e-015
rhumerus -20.2856 27.2981 -86.4763
rradius 118.913
rwrist 15.7489
rhand -19.5555 11.9779
rfingers 7.12502
rthumb 6.76891 -17.8939
lclavicle 1.61513e-014 4.77083e-015
lhumerus -32.0006 -25.5865 98.1686
lradius 89.6343
lwrist 7.10264
lhand -24.0478 26.5057
lfingers 7.12502
lthumb 2.43118 56.4716
rfemur -9.85823 8.31231 13.3934
rtibia 25.6519
rfoot -14.7796 -2.23573
rtoes 4.80295
lfemur -1.78902 -1.29359 -22.8291
ltibia 14.1578
lfoot -10.2595 5.3407
ltoes -10.9091
829
root 0.214506 17.9799 -1.22825 1.88755 -10.7846 1.84296
lowerback -0.0578783 -0.664656 -3.25377
upperback 0.882503 -0.880019 1.41445
thorax 1.00977 -0.473787 3.26987
lowerneck -18.3552 -0.0533909 -8.86249
upperneck 21.3879 1.60849 3.69109
head 9.71779 0.443952 2.98351
rclavicle -2.73329e-015 -1.31198e-014
rhumerus -19.6406 27.9853 -86.1309
rradius 119.381
rwrist 16.6443
rhand -18.8286 11.9739
rfingers 7.12502
rthumb 7.4706 -17.8742
lclavicle -2.73329e-015 -1.31198e-014
lhumerus -32.3448 -25.5852 98.5578
lradius 89.0272
lwrist 6.96865
lhand -24.075 26.7832
lfingers 7.12502
lthumb 2.40492 56.7494
rfemur -9.80781 8.32661 13.3171
rtibia 25.6173
rfoot -14.8352 -2.26162
rtoes 5.15952
lfemur -1.79779 -1.22251 -22.9002
ltibia 14.1917
lfoot -10.2962 5.26419
ltoes -10.8264
830
root 0.213234 17.9802 -1.22321 1.8077 -10.7028 1.8533
lowerback 0.0126622 -0.640502 -3.38007
upperback 0.791386 -0.850409 1.48584
thorax 0.877359 -0.456275 3.4166
lowerneck -18.2183 -0.110247 -8.90994
upperneck 21.3348 1.54989 3.60682
head 9.67931 0.403953 2.951
rclavicle 2.33075e-014 -1.31198e-014
rhumerus -19.1984 28.7078 -85.8093
rradius 119.814
rwrist 17.6848
rhand -17.9759 12.2393
rfingers 7.12502
rthumb 8.29354 -17.5779
lclavicle 2.33075e-014 -1.31198e-014
lhumerus -32.6982 -25.5224 98.9276
lradius 88.5237
lwrist 7.00681
lhand -23.948 26.9651
lfingers 7.12502
lthumb 2.52758 56.9299
rfemur -9.66667 8.28012 13.3231
rtibia 25.5879
rfoot -14.855 -2.31357
rtoes 4.84012
lfemur -1.67646 -1.14173 -22.9044
ltibia 14.2052
lfoot -10.3115 5.11288
ltoes -11.1711
831
root 0.212458 17.9802 -1.21939 1.76605 -10.55 1.86647
lowerback -0.0265996 -0.660239 -3.42281
upperback 0.739495 -0.875703 1.49492
thorax 0.84907 -0.467853 3.44973
lowerneck -18.2046 -0.152804 -8.92054
upperneck 21.3159 1.48929 3.61941
head 9.67423 0.376961 2.94873
rclavicle 3.00662e-015 -5.96354e-015
rhumerus -18.7482 29.4301 -85.5466
rradius 120.233
rwrist 18.6968
rhand -16.9117 12.5497
rfingers 7.12502
rthumb 9.3205 -17.2243
lclavicle 3.00662e-015 -5.96354e-015
lhumerus -32.9447 -25.499 99.1398
lradius 88.0457
lwrist 7.00935
lhand -23.7423 26.9104
lfingers 7.12502
lthumb 2.72628 56.8728
rfemur -9.55651 8.13271 13.3275
rtibia 25.5586
rfoot -14.836 -2.36226
rtoes 4.20292
lfemur -1.60571 -1.13173 -22.9132
ltibia 14.1991
lfoot -10.2594 4.97505
ltoes -11.4708
832
root 0.213342 17.9779 -1.2182 1.78509 -10.3885 1.83228
lowerback -0.121664 -0.66596 -3.32459
upperback 0.72043 -0.880735 1.46006
thorax 0.881064 -0.469826 3.35721
lowerneck -18.4299 -0.224054 -8.90664
upperneck 21.4145 1.39831 3.66497
head 9.75675 0.339426 2.95562
rclavicle -9.31803e-015 7.95139e-016
rhumerus -18.2307 30.0832 -85.2883
rradius 120.632
rwrist 19.6933
rhand -15.7683 12.6676
rfingers 7.12502
rthumb 10.4237 -17.054
lclavicle -9.31803e-015 7.95139e-016
lhumerus -33.0764 -25.6014 99.2971
lradius 87.6178
lwrist 7.02043
lhand -23.6176 27.0497
lfingers 7.12502
lthumb 2.84665 57.0104
rfemur -9.50771 8.01642 13.3643
rtibia 25.5263
rfoot -14.8577 -2.3881
rtoes 4.22936
lfemur -1.65455 -1.18468 -22.8665
ltibia 14.1896
lfoot -10.2845 4.87358
ltoes -10.8835
833
root 0.213257 17.9783 -1.21655 1.80381 -10.2279 1.85474
lowerback -0.23038 -0.672359 -3.29485
upperback 0.722576 -0.885729 1.41132
thorax 0.943382 -0.473108 3.2887
lowerneck -18.7978 -0.298352 -8.86795
upperneck 21.6143 1.32005 3.67068
head 9.90188 0.302975 2.94977
rclavicle -1.62755e-014 1.03368e-014
rhumerus -17.7343 30.751 -84.977
rradius 120.961
rwrist 20.7684
rhand -14.8922 12.8655
rfingers 7.12502
rthumb 11.2687 -16.8118
lclavicle -1.62755e-014 1.03368e-014
lhumerus -33.1723 -25.7254 99.4206
lradius 87.2508
lwrist 6.96897
lhand -23.41 27.3437
lfingers 7.12502
lthumb 3.04713 57.3017
rfemur -9.48963 7.96889 13.3366
rtibia 25.5326
rfoot -14.9213 -2.43894
rtoes 4.55029
lfemur -1.68287 -1.21623 -22.8863
ltibia 14.1427
lfoot -10.2752 4.76447
ltoes -10.9037
834
root 0.212542 17.979 -1.20936 1.76602 -10.1881 1.88325
lowerback -0.336101 -0.62059 -3.26826
upperback 0.737222 -0.812876 1.33713
thorax 1.01025 -0.437587 3.19681
lowerneck -18.9393 -0.354914 -8.80512
upperneck 21.6346 1.22403 3.72181
head 9.94168 0.270057 2.9468
rclavicle -2.98177e-015 1.19271e-015
rhumerus -17.4508 31.3455 -84.7957
rradius 121.233
rwrist 22.0852
rhand -14.2664 13.04
rfingers 7.12502
rthumb 11.8723 -16.6034
lclavicle -2.98177e-015 1.19271e-015
lhumerus -33.3315 -25.9168 99.5222
lradius 86.9452
lwrist 7.0496
lhand -22.8186 27.7044
lfingers 7.12502
lthumb 3.61832 57.6534
rfemur -9.42671 7.98617 13.312
rtibia 25.5558
rfoot -15.0014 -2.4527
rtoes 4.61675
lfemur -1.59476 -1.19162 -22.9196
ltibia 14.0901
lfoot -10.3031 4.72271
ltoes -11.0612
835
root 0.212826 17.9755 -1.19055 1.7495 -10.4996 1.95383
lowerback -0.616782 -0.430212 -3.26634
upperback 0.728501 -0.549395 1.24274
thorax 1.13672 -0.307505 3.10003
lowerneck -18.7929 -0.433805 -8.82772
upperneck 21.5034 1.06936 3.86929
head 9.87658 0.217312 2.97765
rclavicle -2.6339e-014 3.97569e-016
rhumerus -17.3247 31.8238 -84.6682
rradius 121.473
rwrist 23.4655
rhand -13.2847 13.2072
rfingers 7.12502
rthumb 12.8187 -16.3792
lclavicle -2.6339e-014 3.97569e-016
lhumerus -33.6198 -26.1463 99.7093
lradius 86.6939
lwrist 7.17313
lhand -22.2105 28.1424
lfingers 7.12502
lthumb 4.20552 58.0807
rfemur -9.42416 8.09035 13.2211
rtibia 25.5505
rfoot -14.9338 -2.28799
rtoes 4.15393
lfemur -1.50549 -0.989744 -23.0177
ltibia 14.1054
lfoot -10.4786 4.86333
ltoes -11.0104
